<svg version="1" xmlns="http://www.w3.org/2000/svg" width="480" height="480" viewBox="0 0 360.000000 360.000000"><path d="M159.6 7.1C140.3 9 119.3 16 106 25 88.7 36.7 76 54.9 69.6 77.2c-3.6 12.5-4.9 23.3-4.9 40.4v15.1l-3-3.3c-4.9-5.7-10.1-5.5-13.2.5-3.1 6-4.4 29.2-2.5 43.8.9 6.4 2.2 10.1 7.5 20.8 3.6 7.1 6.5 13.5 6.5 14.2 0 .6 1.5 2.8 3.4 4.7 3.5 3.8 8 4.8 10.4 2.4.6-.6 1.3-1 1.5-.7.2.2 1.8 7.1 3.6 15.4 14.6 66.9 34.2 104.4 59.1 113 2.5.8 6.6 2.7 9.2 4.1 7 3.7 16.6 5.4 31.3 5.4 14.2 0 22.6-1.5 30.3-5.4 2.6-1.3 7.1-3.1 9.9-4 18.4-6 34.1-28.5 47.1-67.2 4-11.9 11.7-41.6 14.3-54.7 1.2-6.4 2.1-7.9 3.4-5.7.9 1.5 5.8 1.2 8.2-.5 1.2-.9 5.8-8.9 10.2-17.8 7.5-15.1 8.1-16.9 9.2-25.7 1.2-10.2.5-31.7-1.2-38.4-1.2-4.5-4.9-8.6-7.9-8.6-1.1 0-3.7 1.6-5.9 3.5l-3.8 3.5-.6-20.3c-1-33-5.7-47.9-17.9-56.7-2.3-1.7-4.9-4.5-5.7-6.3-2.2-4.5-16.4-18.6-24-23.7-22.5-15.1-50.9-21.1-84.5-17.9z"/></svg>